<svg width="300" height="70" viewBox="0 0 300 70" fill="none" xmlns="http://www.w3.org/2000/svg">
<rect width="300" height="70" fill="white" fill-opacity="0.05"/>
<path d="M8.32 23.48C8.58667 23.0533 8.92 22.6667 9.32 22.32C9.74667 21.9733 10.12 21.7733 10.44 21.72C10.7867 21.64 11 21.72 11.08 21.96L17.68 47.56L27.44 23.84C27.6 23.4667 27.8667 23.08 28.24 22.68C28.64 22.28 29.0267 22 29.4 21.84C29.8 21.6533 30.08 21.64 30.24 21.8C30.4 21.9333 30.4 22.1867 30.24 22.56L18.4 51.36C18.1333 52.0267 17.76 52.5067 17.28 52.8C16.8 53.12 16.3867 53.28 16.04 53.28L15.48 53.24L8.04 24.44C7.98667 24.2 8.08 23.88 8.32 23.48ZM52.7713 21.68C53.0379 21.68 53.1713 21.8133 53.1713 22.08C53.1713 22.3733 53.0113 22.7333 52.6913 23.16C52.3979 23.5867 52.0379 23.96 51.6113 24.28C51.1846 24.5733 50.8246 24.72 50.5313 24.72H37.0513L36.0913 35.92C40.6246 35.92 45.1713 35.92 49.7312 35.92C50.1313 35.92 50.2379 36.1733 50.0513 36.68C49.8379 37.3467 49.4246 37.8933 48.8113 38.32C48.2246 38.7467 47.7846 38.96 47.4913 38.96C43.5979 38.96 39.7046 38.96 35.8113 38.96L34.8513 50.48C39.9713 50.48 45.1046 50.48 50.2513 50.48C50.6513 50.48 50.7579 50.7333 50.5713 51.24C50.3579 51.9067 49.9446 52.4533 49.3313 52.88C48.7446 53.3067 48.3046 53.52 48.0113 53.52H32.2913C32.1046 53.5467 31.9579 53.5067 31.8513 53.4C31.7713 53.32 31.7446 53.1733 31.7713 52.96L34.2113 24.24C34.2379 23.9467 34.4113 23.5733 34.7313 23.12C35.3179 22.3467 35.9313 21.88 36.5713 21.72C36.7046 21.6933 36.7979 21.68 36.8513 21.68C36.9046 21.68 36.9579 21.68 37.0113 21.68H52.7713ZM65.3381 41.64C63.7648 42.12 62.3915 42.36 61.2181 42.36C60.0715 42.36 59.1915 42.3333 58.5781 42.28L57.8581 50.96C57.8315 51.2533 57.6581 51.6133 57.3381 52.04C57.0181 52.4667 56.6848 52.8 56.3381 53.04C55.9915 53.28 55.7115 53.4267 55.4981 53.48C55.0181 53.6133 54.7915 53.4667 54.8181 53.04L57.2581 24.24C57.2848 23.9467 57.4581 23.5733 57.7781 23.12C58.4448 22.24 59.1115 21.76 59.7781 21.68C61.3515 21.04 62.9648 20.72 64.6181 20.72C66.2981 20.72 67.8715 21.0533 69.3381 21.72C71.2581 22.6 72.6848 23.8133 73.6181 25.36C74.5781 26.9067 75.0581 28.52 75.0581 30.2C75.0581 33.3733 73.5781 36.2267 70.6181 38.76C70.0315 39.2667 69.4181 39.7067 68.7781 40.08L73.2581 50.68C73.3381 50.8933 73.2581 51.2133 73.0181 51.64C72.8048 52.04 72.4981 52.4133 72.0981 52.76C71.6981 53.1333 71.3115 53.3733 70.9381 53.48C70.5915 53.5867 70.3781 53.5333 70.2981 53.32L65.3381 41.64ZM67.8181 38.4C70.6181 37.28 72.0181 35.28 72.0181 32.4C72.0181 30.9333 71.5781 29.48 70.6981 28.04C69.8448 26.6 68.6315 25.5333 67.0581 24.84C65.4848 24.12 63.9248 23.76 62.3781 23.76C61.6048 23.76 60.8581 23.84 60.1381 24L58.8981 38.88C61.6715 39.5467 64.3248 39.4933 66.8581 38.72C67.2315 38.48 67.5515 38.3733 67.8181 38.4ZM78.4853 53.04L81.2853 24.24C81.4453 23.2267 81.9386 22.48 82.7653 22C83.0853 21.8133 83.4453 21.7067 83.8453 21.68C95.952 20.96 101.845 25.9067 101.525 36.52C101.392 40.52 100.272 43.92 98.1653 46.72C96.0853 49.4933 93.4453 51.3867 90.2453 52.4C87.0453 53.4133 83.2453 53.7867 78.8453 53.52C78.5786 53.52 78.4586 53.36 78.4853 53.04ZM81.5653 50.52C85.4586 50.7333 88.6453 50.44 91.1253 49.64C93.6053 48.8133 95.312 47.76 96.2453 46.48C97.6053 44.64 98.352 42.04 98.4853 38.68C98.6186 34.04 97.4986 30.56 95.1253 28.24C92.752 25.8933 89.072 24.6933 84.0853 24.64L81.5653 50.52ZM105.326 52.6C104.953 53 104.58 53.2667 104.206 53.4C103.833 53.56 103.566 53.5467 103.406 53.36C103.273 53.2 103.3 52.9333 103.486 52.56L116.686 23.76L117.886 22.36C118.873 21.4267 119.433 21.2933 119.566 21.96L125.566 50.76C125.62 51 125.513 51.3333 125.246 51.76C124.98 52.1867 124.633 52.56 124.206 52.88C123.806 53.2267 123.433 53.4267 123.086 53.48C122.766 53.56 122.58 53.48 122.526 53.24L120.646 44.08C120.62 44.08 120.58 44.08 120.526 44.08H109.606L106.206 51.44C106.02 51.84 105.726 52.2267 105.326 52.6ZM120.006 41.04L117.166 27.52L111.006 41.04H120.006ZM132.622 50.96C132.595 51.28 132.422 51.6533 132.102 52.08C131.782 52.5067 131.449 52.8267 131.102 53.04C130.755 53.28 130.475 53.4267 130.262 53.48C129.782 53.6133 129.555 53.4667 129.582 53.04L132.382 24.24C133.395 22.9867 134.115 22.24 134.542 22C134.995 21.7333 135.275 21.6933 135.382 21.88L147.222 45.88L149.102 24.24C149.129 23.9467 149.302 23.5867 149.622 23.16C149.942 22.7067 150.275 22.3733 150.622 22.16C150.969 21.92 151.249 21.7733 151.462 21.72C151.942 21.5867 152.169 21.7333 152.142 22.16L149.622 50.96C149.595 51.28 149.329 51.64 148.822 52.04C148.315 52.44 147.822 52.7467 147.342 52.96L146.622 53.32L134.742 29.2L132.622 50.96ZM153.079 23.96C153.159 23.72 153.319 23.4267 153.559 23.08C153.799 22.7333 154.132 22.4133 154.559 22.12C154.985 21.8267 155.345 21.68 155.639 21.68H173.759C174.159 21.68 174.265 21.9333 174.079 22.44C173.865 23.1067 173.452 23.6533 172.839 24.08C172.252 24.5067 171.812 24.72 171.519 24.72H165.319L163.079 50.96C163.052 51.2533 162.879 51.6133 162.559 52.04C162.239 52.4667 161.905 52.8 161.559 53.04C161.212 53.28 160.932 53.4267 160.719 53.48C160.239 53.6133 160.012 53.4667 160.039 53.04L162.439 24.72H153.399C153.025 24.72 152.919 24.4667 153.079 23.96ZM184.492 23.48C184.759 23.0533 185.092 22.6667 185.492 22.32C185.919 21.9733 186.292 21.7733 186.612 21.72C186.959 21.64 187.172 21.72 187.252 21.96L193.852 47.56L203.612 23.84C203.772 23.4667 204.039 23.08 204.412 22.68C204.812 22.28 205.199 22 205.572 21.84C205.972 21.6533 206.252 21.64 206.412 21.8C206.572 21.9333 206.572 22.1867 206.412 22.56L194.572 51.36C194.305 52.0267 193.932 52.5067 193.452 52.8C192.972 53.12 192.559 53.28 192.212 53.28L191.652 53.24L184.212 24.44C184.159 24.2 184.252 23.88 184.492 23.48ZM208.49 52.6C208.117 53 207.744 53.2667 207.37 53.4C206.997 53.56 206.73 53.5467 206.57 53.36C206.437 53.2 206.464 52.9333 206.65 52.56L219.85 23.76L221.05 22.36C222.037 21.4267 222.597 21.2933 222.73 21.96L228.73 50.76C228.784 51 228.677 51.3333 228.41 51.76C228.144 52.1867 227.797 52.56 227.37 52.88C226.97 53.2267 226.597 53.4267 226.25 53.48C225.93 53.56 225.744 53.48 225.69 53.24L223.81 44.08C223.784 44.08 223.744 44.08 223.69 44.08H212.77L209.37 51.44C209.184 51.84 208.89 52.2267 208.49 52.6ZM223.17 41.04L220.33 27.52L214.17 41.04H223.17ZM252.826 24.24C252.853 23.92 253.026 23.5467 253.346 23.12C253.666 22.6933 253.999 22.3733 254.346 22.16C254.693 21.92 254.973 21.7733 255.186 21.72C255.666 21.5867 255.893 21.7333 255.866 22.16L253.826 44.8C253.826 44.88 253.813 44.96 253.786 45.04C253.359 46.4 252.733 47.64 251.906 48.76C250.466 50.68 248.813 51.9733 246.946 52.64C245.106 53.3333 243.053 53.6267 240.786 53.52C235.319 53.2 232.933 50.36 233.626 45L235.306 24.24C235.333 23.9467 235.506 23.5867 235.826 23.16C236.146 22.7333 236.466 22.4 236.786 22.16C237.133 21.92 237.426 21.7733 237.666 21.72C238.146 21.5867 238.373 21.7333 238.346 22.16L236.666 43C236.053 47.72 238.199 50.2133 243.106 50.48C245.026 50.5867 246.546 50.44 247.666 50.04C248.786 49.6133 249.519 49.16 249.866 48.68C250.239 48.2 250.546 47.56 250.786 46.76L252.826 24.24ZM258.031 53.52C257.737 53.52 257.604 53.36 257.631 53.04L260.071 24.24C260.097 23.9467 260.271 23.5867 260.591 23.16C260.911 22.7333 261.244 22.4 261.591 22.16C261.937 21.92 262.217 21.7733 262.431 21.72C262.911 21.5867 263.137 21.7333 263.111 22.16L260.711 50.48H274.791C275.191 50.48 275.297 50.7333 275.111 51.24C274.897 51.9067 274.484 52.4533 273.871 52.88C273.284 53.3067 272.844 53.52 272.551 53.52H258.031ZM276.048 23.96C276.128 23.72 276.288 23.4267 276.528 23.08C276.768 22.7333 277.101 22.4133 277.528 22.12C277.954 21.8267 278.314 21.68 278.608 21.68H296.727C297.128 21.68 297.234 21.9333 297.048 22.44C296.834 23.1067 296.421 23.6533 295.807 24.08C295.221 24.5067 294.781 24.72 294.488 24.72H288.288L286.048 50.96C286.021 51.2533 285.848 51.6133 285.528 52.04C285.208 52.4667 284.874 52.8 284.528 53.04C284.181 53.28 283.901 53.4267 283.688 53.48C283.208 53.6133 282.981 53.4667 283.008 53.04L285.408 24.72H276.368C275.994 24.72 275.888 24.4667 276.048 23.96Z" fill="white"/>
</svg>
